<?xml version="1.0" encoding="UTF-8"?>
<svg version="1.1" xmlns="http://www.w3.org/2000/svg" viewBox="340 340 1840 470">
<path d="M0 0 C1.93095622 0.01037367 3.86193989 0.01644771 5.79292297 0.01841736 C9.83128573 0.03375879 13.86695194 0.0851669 17.90454102 0.1652832 C23.08006393 0.26732974 28.2533304 0.30374905 33.42976665 0.31638432 C37.41307512 0.32912318 41.39591928 0.36405791 45.37900734 0.40701103 C47.28755715 0.42727918 49.19615395 0.44353387 51.10477257 0.45570564 C53.76948192 0.47849701 56.43228992 0.52814431 59.09643555 0.58618164 C59.88457138 0.58908203 60.67270721 0.59198242 61.48472595 0.5949707 C64.99288825 0.69815623 67.05285579 0.93831586 69.90730286 3.05491638 C71.79203628 5.73581544 71.9975219 8.00289861 72.42578125 11.21484375 C73.08578125 11.54484375 73.74578125 11.87484375 74.42578125 12.21484375 C75.53908806 14.23271234 76.46781995 16.30680341 77.42578125 18.40234375 C78.29722694 20.38685898 78.29722694 20.38685898 80.42578125 21.21484375 C81.44613629 23.20453608 82.4398902 25.20785126 83.42578125 27.21484375 C85.91102278 31.48891298 88.48146807 35.71312349 91.11328125 39.8984375 C92.42578125 42.21484375 92.42578125 42.21484375 92.42578125 44.21484375 C93.08578125 44.21484375 93.74578125 44.21484375 94.42578125 44.21484375 C95.76436649 46.50358548 97.09679139 48.79554031 98.42578125 51.08984375 C98.80734375 51.74082031 99.18890625 52.39179688 99.58203125 53.0625 C102.42578125 57.98828125 102.42578125 57.98828125 102.42578125 60.21484375 C103.08578125 60.21484375 103.74578125 60.21484375 104.42578125 60.21484375 C104.76351563 60.92511719 105.10125 61.63539063 105.44921875 62.3671875 C105.89523437 63.28628906 106.34125 64.20539063 106.80078125 65.15234375 C107.46207031 66.52712891 107.46207031 66.52712891 108.13671875 67.9296875 C109.21777287 70.34388177 109.21777287 70.34388177 111.42578125 71.21484375 C111.75578125 72.20484375 112.08578125 73.19484375 112.42578125 74.21484375 C113.08578125 74.54484375 113.74578125 74.87484375 114.42578125 75.21484375 C115.42578125 77.10546875 115.42578125 77.10546875 116.42578125 79.46484375 C116.77125 80.27308594 117.11671875 81.08132813 117.47265625 81.9140625 C118.47761404 84.33996471 119.47784477 86.76600785 120.42578125 89.21484375 C121.08578125 89.21484375 121.74578125 89.21484375 122.42578125 89.21484375 C122.42578125 90.20484375 122.42578125 91.19484375 122.42578125 92.21484375 C123.08578125 92.21484375 123.74578125 92.21484375 124.42578125 92.21484375 C125.07412779 93.48439675 125.7193594 94.75554081 126.36328125 96.02734375 C126.72292969 96.73503906 127.08257813 97.44273437 127.453125 98.171875 C128.42578125 100.21484375 128.42578125 100.21484375 129.42578125 103.21484375 C130.08578125 103.21484375 130.74578125 103.21484375 131.42578125 103.21484375 C132.41578125 106.18484375 133.40578125 109.15484375 134.42578125 112.21484375 C135.08578125 112.21484375 135.74578125 112.21484375 136.42578125 112.21484375 C136.75578125 113.86484375 137.08578125 115.51484375 137.42578125 117.21484375 C138.08578125 117.21484375 138.74578125 117.21484375 139.42578125 117.21484375 C140.95026756 120.19753435 142.36518192 123.03304575 143.42578125 126.21484375 C144.08578125 126.21484375 144.74578125 126.21484375 145.42578125 126.21484375 C146.13154297 127.64376953 146.13154297 127.64376953 146.8515625 129.1015625 C147.48036041 130.36854336 148.10927273 131.63546744 148.73828125 132.90234375 C149.04701172 133.52818359 149.35574219 134.15402344 149.67382812 134.79882812 C152.41526225 140.31055357 155.55969949 145.46520535 158.86328125 150.65234375 C159.77980469 152.09287109 159.77980469 152.09287109 160.71484375 153.5625 C162.02662741 155.59606416 163.36308683 157.59943077 164.73828125 159.58984375 C166.42578125 162.21484375 166.42578125 162.21484375 167.48828125 164.96484375 C168.3188859 167.54419699 168.3188859 167.54419699 171.42578125 169.21484375 C172.45718597 171.07193586 173.40629184 172.97556522 174.30078125 174.90234375 C176.08041613 178.60843338 177.84489283 182.03974369 180.30078125 185.33984375 C182.42578125 188.21484375 182.42578125 188.21484375 182.42578125 190.21484375 C183.08578125 190.21484375 183.74578125 190.21484375 184.42578125 190.21484375 C185.43062329 192.170697 186.4295193 194.12960612 187.42578125 196.08984375 C188.26109375 197.72566406 188.26109375 197.72566406 189.11328125 199.39453125 C190.42578125 202.21484375 190.42578125 202.21484375 190.42578125 204.21484375 C191.08578125 204.21484375 191.74578125 204.21484375 192.42578125 204.21484375 C192.63332031 204.76011719 192.84085938 205.30539062 193.0546875 205.8671875 C195.27555126 211.30319293 198.03576103 215.41693455 201.75390625 219.9375 C203.92278811 222.89184141 205.22574935 225.9487207 206.50390625 229.3671875 C207.40772244 231.56165749 207.40772244 231.56165749 210.42578125 233.21484375 C213.82031629 238.50098993 216.78165529 244.13157771 218.42578125 250.21484375 C219.08578125 250.21484375 219.74578125 250.21484375 220.42578125 250.21484375 C220.75578125 252.19484375 221.08578125 254.17484375 221.42578125 256.21484375 C222.08578125 256.21484375 222.74578125 256.21484375 223.42578125 256.21484375 C223.42578125 257.53484375 223.42578125 258.85484375 223.42578125 260.21484375 C224.35583984 260.59769531 224.35583984 260.59769531 225.3046875 260.98828125 C227.75657467 262.40613129 228.25757669 263.28194657 229.36328125 265.83984375 C232.54090297 272.70202295 236.7952151 278.83510844 241.09375 285.0390625 C242.42578125 287.21484375 242.42578125 287.21484375 243.4765625 289.921875 C244.19838056 292.37420975 244.19838056 292.37420975 246.42578125 293.21484375 C247.80713335 295.5319505 249.12844316 297.85237594 250.42578125 300.21484375 C250.92078125 301.03984375 251.41578125 301.86484375 251.92578125 302.71484375 C252.42078125 303.53984375 252.91578125 304.36484375 253.42578125 305.21484375 C253.78027344 305.77171875 254.13476562 306.32859375 254.5 306.90234375 C256.75272686 310.56994116 257.95573562 312.93051388 257.42578125 317.21484375 C256.02734375 319.8359375 256.02734375 319.8359375 254.05078125 322.65234375 C253.32632812 323.69390625 252.601875 324.73546875 251.85546875 325.80859375 C251.0461553 326.94442561 250.23623531 328.07982548 249.42578125 329.21484375 C248.55291232 330.45409399 247.68052595 331.69368425 246.80859375 332.93359375 C238.46164053 344.74436359 238.46164053 344.74436359 235.42578125 348.21484375 C234.76578125 348.21484375 234.10578125 348.21484375 233.42578125 348.21484375 C233.17183594 348.96121094 232.91789062 349.70757813 232.65625 350.4765625 C231.34879053 353.38617865 230.05368903 354.86659975 227.73828125 357.02734375 C224.99388211 359.6629559 222.39800348 362.32205957 219.92578125 365.21484375 C214.0927763 371.95637543 207.89679623 377.82755439 200.8203125 383.2578125 C198.34835882 385.2034397 198.34835882 385.2034397 196.05859375 387.640625 C193.0752915 390.55753328 189.91447259 392.85449665 186.48828125 395.21484375 C182.95965225 397.66156375 179.4975054 400.10417129 176.2265625 402.890625 C173.99349694 404.74372683 172.10643321 406.10330904 169.55078125 407.40234375 C164.18742306 410.25363332 159.10764342 413.52827634 154.01025391 416.82495117 C153.34687012 417.24752197 152.68348633 417.67009277 152 418.10546875 C151.40791748 418.48735352 150.81583496 418.86923828 150.20581055 419.26269531 C148.42578125 420.21484375 148.42578125 420.21484375 146.30004883 420.72558594 C144.22705887 421.06831508 144.22705887 421.06831508 142.86328125 423.15234375 C138.99236799 426.4277319 134.34855783 426.56979027 129.42578125 427.21484375 C129.42578125 427.87484375 129.42578125 428.53484375 129.42578125 429.21484375 C115.95939414 435.5807722 101.92242702 439.92815483 87.42578125 443.21484375 C85.54632812 443.64796875 85.54632812 443.64796875 83.62890625 444.08984375 C73.74401859 446.2959131 64.54577443 447.40498976 54.42578125 447.21484375 C54.42578125 447.87484375 54.42578125 448.53484375 54.42578125 449.21484375 C45.3693057 450.14225051 36.40072103 450.37128287 27.30078125 450.33984375 C26.62578583 450.33895752 25.95079041 450.33807129 25.25534058 450.3371582 C14.61898718 450.32078853 4.03175547 450.02956879 -6.57421875 449.21484375 C-6.57421875 448.55484375 -6.57421875 447.89484375 -6.57421875 447.21484375 C-7.34765625 447.22644531 -8.12109375 447.23804688 -8.91796875 447.25 C-17.67175051 447.32583722 -25.13128164 446.64755444 -33.57421875 444.21484375 C-35.40448465 443.8650596 -37.23818318 443.53295632 -39.07421875 443.21484375 C-43.34524662 442.47003235 -47.41413297 441.44746176 -51.57421875 440.21484375 C-53.86585204 439.71342655 -56.16018177 439.23504294 -58.4609375 438.77734375 C-60.69107016 438.18374097 -62.54968498 437.31165663 -64.57421875 436.21484375 C-64.57421875 435.55484375 -64.57421875 434.89484375 -64.57421875 434.21484375 C-65.30125 434.14007812 -66.02828125 434.0653125 -66.77734375 433.98828125 C-74.02517974 433.04048731 -79.66006407 431.0407259 -86.078125 427.5546875 C-88.59066367 426.11488826 -88.59066367 426.11488826 -91.57421875 425.21484375 C-91.57421875 424.55484375 -91.57421875 423.89484375 -91.57421875 423.21484375 C-92.40566406 423.13234375 -93.23710937 423.04984375 -94.09375 422.96484375 C-98.319958 422.05414573 -101.52674399 420.32800454 -105.26171875 418.21484375 C-110.26561245 415.38859538 -110.26561245 415.38859538 -115.57421875 413.21484375 C-115.57421875 412.55484375 -115.57421875 411.89484375 -115.57421875 411.21484375 C-116.13625 410.95316406 -116.69828125 410.69148438 -117.27734375 410.421875 C-119.79616024 409.09821123 -122.01331143 407.56192847 -124.32421875 405.90234375 C-128.17718167 403.1583939 -132.0831043 400.62768275 -136.17578125 398.2578125 C-136.86800781 397.74154297 -136.86800781 397.74154297 -137.57421875 397.21484375 C-137.57421875 396.55484375 -137.57421875 395.89484375 -137.57421875 395.21484375 C-138.13238281 394.95316406 -138.69054687 394.69148438 -139.265625 394.421875 C-145.77772054 391.01707378 -151.52437309 386.52365585 -156.57421875 381.21484375 C-158.82798224 379.18155713 -161.10651383 377.1787796 -163.390625 375.1796875 C-165.53504621 373.25009203 -167.62410088 371.34184306 -169.57421875 369.21484375 C-169.57421875 368.55484375 -169.57421875 367.89484375 -169.57421875 367.21484375 C-170.13109375 367.00859375 -170.68796875 366.80234375 -171.26171875 366.58984375 C-173.85692636 365.04674733 -175.41471717 363.160647 -177.26953125 360.8046875 C-178.74502095 358.94769736 -178.74502095 358.94769736 -181.38671875 356.46484375 C-183.57421875 354.21484375 -183.57421875 354.21484375 -183.57421875 352.21484375 C-184.23421875 352.21484375 -184.89421875 352.21484375 -185.57421875 352.21484375 C-186.99820565 350.49965298 -188.34054035 348.71605255 -189.63671875 346.90234375 C-190.34957031 345.91621094 -191.06242187 344.93007813 -191.796875 343.9140625 C-193.57421875 341.21484375 -193.57421875 341.21484375 -194.57421875 338.21484375 C-195.56421875 337.88484375 -196.55421875 337.55484375 -197.57421875 337.21484375 C-199.61382346 334.31232935 -200.92762949 331.70642577 -201.57421875 328.21484375 C-202.23421875 328.21484375 -202.89421875 328.21484375 -203.57421875 328.21484375 C-204.79296875 326.5 -204.79296875 326.5 -206.07421875 324.27734375 C-207.75876754 321.16052349 -207.75876754 321.16052349 -210.57421875 319.21484375 C-211.78413949 315.98838844 -211.91534651 313.99059354 -210.51953125 310.81640625 C-209.26548331 308.57045598 -207.96410152 306.37902108 -206.57421875 304.21484375 C-205.91421875 304.21484375 -205.25421875 304.21484375 -204.57421875 304.21484375 C-203.91421875 302.23484375 -203.25421875 300.25484375 -202.57421875 298.21484375 C-201.91421875 298.21484375 -201.25421875 298.21484375 -200.57421875 298.21484375 C-200.24421875 296.56484375 -199.91421875 294.91484375 -199.57421875 293.21484375 C-198.91421875 293.21484375 -198.25421875 293.21484375 -197.57421875 293.21484375 C-197.34734375 292.36921875 -197.12046875 291.52359375 -196.88671875 290.65234375 C-195.56087466 287.17989495 -193.95883159 284.82660858 -191.75 281.89453125 C-190.2810418 279.79601953 -189.38197589 277.63811516 -188.57421875 275.21484375 C-187.91421875 275.21484375 -187.25421875 275.21484375 -186.57421875 275.21484375 C-185.91421875 272.90484375 -185.25421875 270.59484375 -184.57421875 268.21484375 C-183.91421875 268.21484375 -183.25421875 268.21484375 -182.57421875 268.21484375 C-182.51234375 267.32796875 -182.45046875 266.44109375 -182.38671875 265.52734375 C-181.54042833 262.07708282 -180.68924472 261.11957593 -178.10546875 258.84375 C-175.25932705 255.81609416 -173.32825296 252.10628625 -171.22265625 248.54296875 C-169.57421875 246.21484375 -169.57421875 246.21484375 -166.57421875 245.21484375 C-166.47625 244.33441406 -166.37828125 243.45398438 -166.27734375 242.546875 C-165.52046001 238.96008704 -164.37641538 236.91371925 -162.32421875 233.90234375 C-159.15196292 229.11488638 -156.30230408 224.2643433 -153.57421875 219.21484375 C-152.79691406 217.81492187 -152.79691406 217.81492187 -152.00390625 216.38671875 C-151.47023438 215.4225 -150.9365625 214.45828125 -150.38671875 213.46484375 C-149.89816406 212.583125 -149.40960938 211.70140625 -148.90625 210.79296875 C-147.52970142 208.23138284 -147.52970142 208.23138284 -146.4921875 205.5 C-145.52061793 203.08141193 -144.60752652 201.82454573 -142.57421875 200.21484375 C-141.91421875 200.21484375 -141.25421875 200.21484375 -140.57421875 200.21484375 C-140.28546875 199.28671875 -139.99671875 198.35859375 -139.69921875 197.40234375 C-138.57421875 194.21484375 -138.57421875 194.21484375 -136.57421875 191.21484375 C-135.91421875 191.21484375 -135.25421875 191.21484375 -134.57421875 191.21484375 C-134.36796875 190.43109375 -134.16171875 189.64734375 -133.94921875 188.83984375 C-132.10108485 183.96749073 -129.64384315 179.4355773 -126.57421875 175.21484375 C-125.91421875 175.21484375 -125.25421875 175.21484375 -124.57421875 175.21484375 C-124.30609375 174.32796875 -124.03796875 173.44109375 -123.76171875 172.52734375 C-122.64030205 169.39918138 -121.31553567 167.02774031 -119.57421875 164.21484375 C-118.54038585 162.11524489 -117.53114779 160.00635479 -116.5390625 157.88671875 C-115.57421875 156.21484375 -115.57421875 156.21484375 -113.57421875 155.21484375 C-112.54970602 153.22728905 -111.55447139 151.22459616 -110.57421875 149.21484375 C-108.52645535 145.89619216 -106.42569268 142.61576201 -104.31640625 139.3359375 C-102.72601226 136.48677877 -101.96820636 134.4204702 -101.57421875 131.21484375 C-100.91421875 131.21484375 -100.25421875 131.21484375 -99.57421875 131.21484375 C-98.58421875 129.23484375 -98.58421875 129.23484375 -97.57421875 127.21484375 C-96.91421875 127.21484375 -96.25421875 127.21484375 -95.57421875 127.21484375 C-94.91421875 124.90484375 -94.25421875 122.59484375 -93.57421875 120.21484375 C-92.91421875 120.21484375 -92.25421875 120.21484375 -91.57421875 120.21484375 C-89.70870449 116.62731633 -88.14885947 112.93672182 -86.57421875 109.21484375 C-85.91421875 109.21484375 -85.25421875 109.21484375 -84.57421875 109.21484375 C-84.07921875 107.23484375 -84.07921875 107.23484375 -83.57421875 105.21484375 C-82.91421875 105.21484375 -82.25421875 105.21484375 -81.57421875 105.21484375 C-81.39246094 104.63476562 -81.21070313 104.0546875 -81.0234375 103.45703125 C-79.53240815 98.82337082 -77.89088299 94.5172202 -75.57421875 90.21484375 C-74.91421875 90.21484375 -74.25421875 90.21484375 -73.57421875 90.21484375 C-73.29835938 89.6528125 -73.0225 89.09078125 -72.73828125 88.51171875 C-71.53053847 86.12865581 -70.25245066 83.79694295 -68.94921875 81.46484375 C-68.50320313 80.665625 -68.0571875 79.86640625 -67.59765625 79.04296875 C-67.09105469 78.13804687 -67.09105469 78.13804687 -66.57421875 77.21484375 C-65.91421875 77.21484375 -65.25421875 77.21484375 -64.57421875 77.21484375 C-63.91421875 74.90484375 -63.25421875 72.59484375 -62.57421875 70.21484375 C-61.91421875 70.21484375 -61.25421875 70.21484375 -60.57421875 70.21484375 C-60.36796875 69.38984375 -60.16171875 68.56484375 -59.94921875 67.71484375 C-58.46300397 63.93175157 -56.56317317 61.36134053 -54.01171875 58.2421875 C-52.41538436 55.99083546 -51.57834317 53.77873456 -50.57421875 51.21484375 C-49.67814186 49.7511639 -48.73912829 48.31301135 -47.76171875 46.90234375 C-45.72045531 43.90548884 -43.70234376 40.90309776 -41.76171875 37.83984375 C-41.36339844 37.21335937 -40.96507812 36.586875 -40.5546875 35.94140625 C-39.41860655 34.07047935 -39.41860655 34.07047935 -38.57421875 31.21484375 C-37.58421875 30.71984375 -37.58421875 30.71984375 -36.57421875 30.21484375 C-35.85262451 28.57121241 -35.18070454 26.90433989 -34.57421875 25.21484375 C-33.91421875 25.21484375 -33.25421875 25.21484375 -32.57421875 25.21484375 C-31.91421875 22.90484375 -31.25421875 20.59484375 -30.57421875 18.21484375 C-29.91421875 18.21484375 -29.25421875 18.21484375 -28.57421875 18.21484375 C-28.1535186 16.90925255 -28.1535186 16.90925255 -27.72431946 15.57728577 C-22.3298996 -0.19387572 -15.23910057 -0.37744045 0 0 Z " fill="#6F6F6F" transform="translate(573.57421875,364.78515625)"/>
<path d="M0 0 C7.77780059 -0.10124221 15.55543193 -0.17139908 23.33374023 -0.21972656 C25.98094025 -0.23986848 28.62809563 -0.26718355 31.27514648 -0.30175781 C35.07546995 -0.35016051 38.87520631 -0.3729433 42.67578125 -0.390625 C44.45714226 -0.42159271 44.45714226 -0.42159271 46.27449036 -0.45318604 C47.37540512 -0.45348816 48.47631989 -0.45379028 49.6105957 -0.45410156 C51.06620659 -0.46742523 51.06620659 -0.46742523 52.55122375 -0.48101807 C55 0 55 0 56.75675964 1.80279541 C58.5392567 4.9530396 59.50235083 8.29315959 60.5 11.75 C60.92916184 13.18674514 61.3601323 14.62295135 61.79296875 16.05859375 C61.99841309 16.74163574 62.20385742 17.42467773 62.41552734 18.12841797 C63.12325841 20.39469465 63.94156417 22.60420299 64.8125 24.8125 C66 28 66 28 66 31 C66.66 31 67.32 31 68 31 C70.35862583 38.94605012 72.56933303 46.8301386 74 55 C74.66 55 75.32 55 76 55 C76.31453125 56.05058594 76.6290625 57.10117187 76.953125 58.18359375 C79.00433001 64.94306352 81.05162038 71.51923071 84.09375 77.91015625 C85.47471992 81.09472052 86.37378465 84.3948251 87.2890625 87.73828125 C87.93727217 90.02548799 87.93727217 90.02548799 89.0859375 92.10546875 C90 94 90 94 90 97 C90.66 97 91.32 97 92 97 C92.33 99.64 92.66 102.28 93 105 C93.66 105 94.32 105 95 105 C95.25394531 105.97839844 95.50789063 106.95679688 95.76953125 107.96484375 C96.11644191 109.28925802 96.46415182 110.6134631 96.8125 111.9375 C96.99264648 112.62247559 97.17279297 113.30745117 97.35839844 114.01318359 C98.360772 117.77164091 99.44831768 121.45662254 100.75 125.125 C101.82075653 128.18678488 102.31756376 130.71850782 102 134 C102.66 134 103.32 134 104 134 C104.33 135.98 104.66 137.96 105 140 C105.66 140 106.32 140 107 140 C107.64730804 142.56213554 108.29289288 145.12468485 108.9375 147.6875 C109.11990234 148.40873047 109.30230469 149.12996094 109.49023438 149.87304688 C110.41825907 153.56827248 111.29798461 157.25345469 112 161 C112.66 161 113.32 161 114 161 C114.17015625 161.60585938 114.3403125 162.21171875 114.515625 162.8359375 C116.31738088 169.06541261 118.51462817 175.01462888 121 181 C123.85874932 187.93376654 126.24801329 194.70005539 128 202 C128.66 202 129.32 202 130 202 C130.18175781 202.68964844 130.36351562 203.37929688 130.55078125 204.08984375 C133.16801343 215.01007189 133.16801343 215.01007189 138 225 C138.91389745 227.74453937 139.76259058 230.47286642 140.5625 233.25 C140.78357422 233.98863281 141.00464844 234.72726562 141.23242188 235.48828125 C142.5456716 239.98745101 143.45197179 244.34483906 144 249 C144.66 249 145.32 249 146 249 C146.17015625 249.53367187 146.3403125 250.06734375 146.515625 250.6171875 C147.88258048 254.81984851 149.35604717 258.92240859 151.0625 263 C152.3517978 266.14569274 153.30671968 269.09912493 153.9375 272.4375 C154.82943105 277.03499912 156.72646673 280.89243454 158.87890625 285.03125 C160 288 160 288 161 297 C143.51 297 126.02 297 108 297 C106.40709863 293.01774657 105.70116843 290.76460539 105.375 286.6875 C105.26285156 285.36298828 105.26285156 285.36298828 105.1484375 284.01171875 C105.09945313 283.34785156 105.05046875 282.68398438 105 282 C104.34 282 103.68 282 103 282 C102.74605469 281.2265625 102.49210937 280.453125 102.23046875 279.65625 C100.48431091 274.37199705 98.70180511 269.12019553 96.71484375 263.921875 C95.10340907 259.58949324 93.70244661 255.18027146 92.28515625 250.78125 C90.66452211 245.80546517 88.81187023 240.98306459 86.76953125 236.1640625 C86 234 86 234 86 231 C47.39 231 8.78 231 -31 231 C-31.99 233.97 -32.98 236.94 -34 240 C-35 243 -36 246 -37 249 C-37.66 249 -38.32 249 -39 249 C-39.144375 250.2375 -39.28875 251.475 -39.4375 252.75 C-39.78688502 255.56504499 -40.20379366 258.2701497 -41 261 C-41.66 261 -42.32 261 -43 261 C-43.04898438 261.61488281 -43.09796875 262.22976563 -43.1484375 262.86328125 C-43.22320313 263.67152344 -43.29796875 264.47976563 -43.375 265.3125 C-43.44460938 266.11300781 -43.51421875 266.91351562 -43.5859375 267.73828125 C-44 270 -44 270 -46 273 C-46.88826986 275.7445261 -47.71753518 278.47580654 -48.5 281.25 C-48.71269531 281.98863281 -48.92539062 282.72726562 -49.14453125 283.48828125 C-49.76811703 285.65744159 -50.38432109 287.82858319 -51 290 C-51.66 292.31 -52.32 294.62 -53 297 C-70.82 297 -88.64 297 -107 297 C-106.67 294.69 -106.34 292.38 -106 290 C-105.34 290 -104.68 290 -104 290 C-103.93941406 289.39671875 -103.87882813 288.7934375 -103.81640625 288.171875 C-103.73261719 287.37265625 -103.64882813 286.5734375 -103.5625 285.75 C-103.48128906 284.96109375 -103.40007813 284.1721875 -103.31640625 283.359375 C-103.02365007 281.17635361 -102.57935581 279.1226818 -102 277 C-101.34 277 -100.68 277 -100 277 C-99.67 275.02 -99.34 273.04 -99 271 C-98.34 271 -97.68 271 -97 271 C-96.896875 269.865625 -96.79375 268.73125 -96.6875 267.5625 C-96.19228778 263.52185541 -95.09344266 259.89977059 -93.71875 256.078125 C-93.02380758 254.06883497 -92.4846183 252.06894734 -92 250 C-91.34 250 -90.68 250 -90 250 C-89.896875 249.195625 -89.79375 248.39125 -89.6875 247.5625 C-88.84899627 243.21752614 -87.47178341 239.16542473 -86 235 C-85.34 235 -84.68 235 -84 235 C-83.91363281 234.41734375 -83.82726562 233.8346875 -83.73828125 233.234375 C-82.66611078 226.97840783 -80.7003786 221.56073521 -78.1640625 215.75390625 C-76.8154087 212.5632991 -75.89981943 209.34218647 -75 206 C-74.29394485 204.07439503 -73.58632474 202.14920993 -72.8515625 200.234375 C-71.8727498 197.66611417 -70.93525085 195.08443366 -70 192.5 C-68.85720995 189.3443411 -67.69911217 186.19713563 -66.5 183.0625 C-65.27248379 179.8221212 -64.19374423 176.5460072 -63.125 173.25 C-60.84003175 166.32505791 -58.08250372 159.61888645 -55.0859375 152.97265625 C-53.17094542 148.70744661 -52.03609139 144.54286225 -51 140 C-50.34 140 -49.68 140 -49 140 C-48.9175 138.88625 -48.835 137.7725 -48.75 136.625 C-48.12080974 131.3848781 -46.11369129 126.79758766 -44 122 C-43.34 122 -42.68 122 -42 122 C-41.98582031 121.44054687 -41.97164062 120.88109375 -41.95703125 120.3046875 C-41.48091286 112.30075127 -38.83081423 105.44174171 -36 98 C-35.40527308 96.29559968 -34.82000193 94.58782759 -34.25 92.875 C-34.02828125 92.21242188 -33.8065625 91.54984375 -33.578125 90.8671875 C-32.97710832 88.92606607 -32.47414493 86.97560387 -32 85 C-31.34 85 -30.68 85 -30 85 C-29.86722656 84.45859375 -29.73445312 83.9171875 -29.59765625 83.359375 C-28.91051995 80.6467585 -28.17649541 77.94893977 -27.4375 75.25 C-27.16808594 74.26515625 -26.89867187 73.2803125 -26.62109375 72.265625 C-26.41613281 71.51796875 -26.21117187 70.7703125 -26 70 C-25.34 70 -24.68 70 -24 70 C-23.67 68.02 -23.34 66.04 -23 64 C-22.34 64 -21.68 64 -21 64 C-20.92652344 63.14728516 -20.92652344 63.14728516 -20.8515625 62.27734375 C-20.36856919 57.28918871 -19.52361837 52.77400422 -18 48 C-17.34 48 -16.68 48 -16 48 C-15.93941406 47.39671875 -15.87882812 46.7934375 -15.81640625 46.171875 C-15.69072266 44.97304688 -15.69072266 44.97304688 -15.5625 43.75 C-15.48128906 42.96109375 -15.40007812 42.1721875 -15.31640625 41.359375 C-15.02365007 39.17635361 -14.57935581 37.1226818 -14 35 C-13.34 35 -12.68 35 -12 35 C-11.82597656 33.69482422 -11.82597656 33.69482422 -11.6484375 32.36328125 C-11.00169508 29.00879197 -10.00218035 26.30493551 -8.625 23.1875 C-6.80012898 18.94519926 -5.15261271 14.73432112 -3.7734375 10.328125 C-3.04898755 8.14745747 -2.26145158 6.004675 -1.45166016 3.85449219 C-1.18020172 3.13299988 -0.90874329 2.41150757 -0.62905884 1.66815186 C-0.31767471 0.84241669 -0.31767471 0.84241669 0 0 Z " fill="#030303" transform="translate(1050,439)"/>
<path d="M0 0 C15.51 0 31.02 0 47 0 C47 36.96 47 73.92 47 112 C47.66 112 48.32 112 49 112 C49.061875 111.443125 49.12375 110.88625 49.1875 110.3125 C50.09763654 107.72211139 51.37690975 106.3910838 53.3671875 104.54296875 C54.59985748 103.37812511 55.78513201 102.16284117 56.9453125 100.92578125 C63.68518074 93.81147589 70.96159137 87.17580189 81 86 C81 85.34 81 84.68 81 84 C85.455 83.505 85.455 83.505 90 83 C90 82.34 90 81.68 90 81 C107.98369478 75.00543507 135.1160712 76.86446195 152.4921875 84.02734375 C154.82180044 85.19215022 156.86501284 86.50697633 159 88 C160.03898437 88.69996094 161.07796875 89.39992188 162.1484375 90.12109375 C169.98456549 95.62420811 175.49462835 101.39759855 180 110 C180 110.66 180 111.32 180 112 C180.66 112 181.32 112 182 112 C182.99 116.95 182.99 116.95 184 122 C184.66 122 185.32 122 186 122 C186.485864 123.51870698 186.96331201 125.04010699 187.4375 126.5625 C187.70433594 127.40941406 187.97117187 128.25632812 188.24609375 129.12890625 C189.69969289 134.66463355 190.12482404 140.09477814 190.12025452 145.80210876 C190.12153615 146.77275681 190.12153615 146.77275681 190.12284368 147.7630139 C190.12447847 149.91096732 190.11901022 152.058841 190.11352539 154.20678711 C190.11324306 155.75459796 190.11340215 157.30240895 190.1139679 158.85021973 C190.11425408 163.03770001 190.10838627 167.22515147 190.10139394 171.41262507 C190.09513061 175.79417063 190.09455424 180.17571689 190.09336853 184.55726624 C190.09026399 192.84791741 190.08206244 201.13855535 190.07201904 209.42920071 C190.06083064 218.87053588 190.05534058 228.3118717 190.05032361 237.75321186 C190.03987909 257.16881692 190.02154453 276.58440386 190 296 C173.83 296 157.66 296 141 296 C140.97494385 292.0181665 140.9498877 288.03633301 140.92407227 283.93383789 C140.84055416 270.77025173 140.75192146 257.60670417 140.66066074 244.44316959 C140.60546025 236.46302264 140.55200047 228.48287122 140.50268555 220.50268555 C140.45968172 213.54449035 140.41336396 206.58632632 140.36312145 199.62817949 C140.33665036 195.9463393 140.31180167 192.26450477 140.29092598 188.58262825 C140.26751896 184.46527663 140.23671107 180.3480114 140.20532227 176.23071289 C140.1995668 175.01942215 140.19381134 173.80813141 140.18788147 172.56013489 C140.11155313 163.73761545 139.72118213 155.46589996 137 147 C136.7834375 146.26652344 136.566875 145.53304687 136.34375 144.77734375 C133.85550843 136.67703558 129.93594158 130.94045027 123 126 C121.515 125.505 121.515 125.505 120 125 C120 124.34 120 123.68 120 123 C113.34522001 122.14944019 106.83192332 121.80668861 100.125 121.8125 C99.15844482 121.81330566 98.19188965 121.81411133 97.19604492 121.81494141 C85.544872 121.75366727 85.544872 121.75366727 75 126 C74.01 126 73.02 126 72 126 C72 126.66 72 127.32 72 128 C70.02 128.66 68.04 129.32 66 130 C66 130.66 66 131.32 66 132 C65.21625 132.61875 64.4325 133.2375 63.625 133.875 C61.13770844 135.88852174 60.14461734 137.08642859 59 140 C58.34 140 57.68 140 57 140 C55.17304955 143.4339902 53.82847712 146.97168792 52.5 150.625 C52.0771875 151.77226563 51.654375 152.91953125 51.21875 154.1015625 C48.29106525 162.97287875 47.69844951 171.58929759 47.68115234 180.88525391 C47.66608391 182.76012985 47.66608391 182.76012985 47.65071106 184.67288208 C47.62528176 188.06891171 47.60832845 191.46477748 47.59528303 194.86086321 C47.57955425 198.42164283 47.55279562 201.98234 47.5272522 205.5430603 C47.48063573 212.2717298 47.44380925 219.0004151 47.41057932 225.72916257 C47.37223617 233.39556343 47.32285834 241.06188112 47.27259517 248.72821164 C47.16953039 264.48542014 47.08164423 280.24266374 47 296 C31.16 296 15.32 296 -1 296 C-1.0230246 271.72888176 -1.04124657 247.45777304 -1.05181217 223.18664646 C-1.05685934 211.90429338 -1.06369308 200.62194787 -1.07543945 189.33959961 C-1.13985126 126.21906935 -0.78068593 63.11586133 0 0 Z " fill="#020202" transform="translate(1548,440)"/>
<path d="M0 0 C16.5 0 33 0 50 0 C50.0093457 4.27839844 50.01869141 8.55679688 50.02832031 12.96484375 C50.06217306 27.14225286 50.11756976 41.31951836 50.18390274 55.49681091 C50.2235774 64.08772054 50.2560283 72.6785401 50.27099609 81.26953125 C50.28407301 88.76440413 50.31118998 96.25907787 50.35461307 103.75383854 C50.37709329 107.71598608 50.39291886 111.67788924 50.39188385 115.6401062 C50.39112917 119.38311947 50.40939713 123.12559533 50.44116783 126.86846924 C50.45351163 128.86922477 50.44666625 130.87007124 50.43885803 132.87084961 C50.57410033 144.86262694 52.36824334 156.78413034 59 167 C59.99 167.66 60.98 168.32 62 169 C62 169.66 62 170.32 62 171 C63.32 171.33 64.64 171.66 66 172 C66 172.66 66 173.32 66 174 C68.64 174.66 71.28 175.32 74 176 C74 176.66 74 177.32 74 178 C77.99993747 178.05855764 81.99976308 178.09378299 86 178.125 C87.68802734 178.15013672 87.68802734 178.15013672 89.41015625 178.17578125 C95.67376132 178.21241052 101.00465101 177.81510566 107 176 C108.99601306 175.6435691 110.994845 175.30077325 113 175 C113 174.34 113 173.68 113 173 C113.804375 172.67 114.60875 172.34 115.4375 172 C120.44452705 169.52044354 126.47753982 165.04492037 129 160 C129.66 160 130.32 160 131 160 C131.268125 158.96875 131.53625 157.9375 131.8125 156.875 C132.80998897 153.3514958 134.2661898 150.23119173 136 147 C136.66 147 137.32 147 138 147 C138.33 144.36 138.66 141.72 139 139 C139.66 139 140.32 139 141 139 C141.495 70.69 141.495 70.69 142 1 C157.51 1 173.02 1 189 1 C189 70.3 189 139.6 189 211 C174.48 211 159.96 211 145 211 C145 202.09 145 193.18 145 184 C144.34 184 143.68 184 143 184 C142.74089844 184.5775 142.48179687 185.155 142.21484375 185.75 C140.90662543 188.17293811 139.41134269 189.96428504 137.5625 192 C135.7349936 194.02091421 134.01735895 195.97540089 132.4453125 198.203125 C131 200 131 200 128.3125 200.75 C127.549375 200.8325 126.78625 200.915 126 201 C125.67 201.99 125.34 202.98 125 204 C122.9609375 205.24609375 122.9609375 205.24609375 120.375 206.4375 C117.28222251 207.89395692 114.32824762 209.36462856 111.4375 211.1875 C105.18537024 214.48407751 98.99452167 215.29763922 92 215 C92 215.66 92 216.32 92 217 C71.59919837 219.67551497 51.0558347 219.5422031 33 209 C32.23042969 208.5978125 31.46085937 208.195625 30.66796875 207.78125 C21.5224493 202.73047003 13.12926037 192.49729886 9 183 C9 182.01 9 181.02 9 180 C8.34 180 7.68 180 7 180 C6.81824219 179.43152344 6.63648438 178.86304688 6.44921875 178.27734375 C5.23401828 174.54449717 4.00232007 170.88779434 2.375 167.3125 C0.16840314 161.99660757 -0.12479627 156.99371394 -0.12025452 151.28018188 C-0.12110894 150.62985406 -0.12196337 149.97952624 -0.12284368 149.30949152 C-0.12448221 147.14461287 -0.11900394 144.97981284 -0.11352539 142.81494141 C-0.11324314 141.25742596 -0.11340199 139.69991039 -0.1139679 138.14239502 C-0.1142544 133.92386489 -0.10838143 129.70536328 -0.10139394 125.48683977 C-0.09513592 121.07459184 -0.09455466 116.66234323 -0.09336853 112.25009155 C-0.09026244 103.89919998 -0.08205877 95.54832153 -0.07201904 87.19743574 C-0.0608355 77.68841039 -0.0553418 68.17938441 -0.05032361 58.67035413 C-0.03987556 39.11356048 -0.02153904 19.5567848 0 0 Z " fill="#010101" transform="translate(1778,524)"/>
<path d="M0 0 C2.78388975 1.70625501 3.85384206 2.47626739 4.75 5.6875 C4.8325 6.450625 4.915 7.21375 5 8 C5.66 8 6.32 8 7 8 C8.84827434 11.6125362 10.55049545 15.2089881 12 19 C12.66 19 13.32 19 14 19 C14.99 22.465 14.99 22.465 16 26 C16.66 26 17.32 26 18 26 C18 26.66 18 27.32 18 28 C18.66 28 19.32 28 20 28 C20.99 30.97 21.98 33.94 23 37 C23.66 37 24.32 37 25 37 C25.66 39.31 26.32 41.62 27 44 C27.66 44 28.32 44 29 44 C29.33 45.65 29.66 47.3 30 49 C30.66 49 31.32 49 32 49 C35.75886525 55.39007092 35.75886525 55.39007092 37.0625 58.6875 C38.05864836 61.14466597 39.40622538 62.89911528 41 65 C41 65.66 41 66.32 41 67 C41.66 67 42.32 67 43 67 C43.83848804 68.45537568 44.67063934 69.91440373 45.5 71.375 C45.9640625 72.18710937 46.428125 72.99921875 46.90625 73.8359375 C48 76 48 76 48 78 C48.66 78 49.32 78 50 78 C53 82.38461538 53 82.38461538 53 85 C53.66 85 54.32 85 55 85 C55.67667998 86.24460783 56.34094719 87.49596896 57 88.75 C57.37125 89.44609375 57.7425 90.1421875 58.125 90.859375 C59 93 59 93 59 97 C59.66 97 60.32 97 61 97 C61.23460937 97.68707031 61.46921875 98.37414062 61.7109375 99.08203125 C63.26738046 102.60525213 65.3765434 105.58533254 67.625 108.6875 C72 114.73332055 72 114.73332055 72 117 C72.66 117 73.32 117 74 117 C74.32613281 117.67546875 74.65226563 118.3509375 74.98828125 119.046875 C75.42527344 119.93890625 75.86226562 120.8309375 76.3125 121.75 C76.74175781 122.63171875 77.17101562 123.5134375 77.61328125 124.421875 C78.91851299 127.00243245 78.91851299 127.00243245 80.60546875 129.140625 C82 131 82 131 83 134 C83.66 134.33 84.32 134.66 85 135 C85.73075648 137.3140622 86.40138258 139.64828869 87 142 C87.66 142 88.32 142 89 142 C89.32613281 142.59167969 89.65226563 143.18335938 89.98828125 143.79296875 C91.8787122 147.21135864 93.76086796 150.61244117 95.8125 153.9375 C97 156 97 156 97 158 C97.66 158 98.32 158 99 158 C99.33 159.65 99.66 161.3 100 163 C100.66 163 101.32 163 102 163 C105 169.625 105 169.625 105 173 C105.99 173.33 106.98 173.66 108 174 C108 174.66 108 175.32 108 176 C108.66 176 109.32 176 110 176 C110.39832031 176.73605469 110.79664063 177.47210937 111.20703125 178.23046875 C111.73683594 179.20628906 112.26664063 180.18210937 112.8125 181.1875 C113.59560547 182.63189453 113.59560547 182.63189453 114.39453125 184.10546875 C115.45041206 186.00913707 116.55140641 187.88858826 117.69921875 189.73828125 C119 192 119 192 119 194 C40.79 194 -37.42 194 -118 194 C-117.07315328 190.29261312 -115.99707367 187.98532615 -114.0625 184.75 C-113.53785156 183.85796875 -113.01320313 182.9659375 -112.47265625 182.046875 C-111.98667969 181.37140625 -111.50070312 180.6959375 -111 180 C-110.34 180 -109.68 180 -109 180 C-108.7525 179.34 -108.505 178.68 -108.25 178 C-102.53333333 164.28 -102.53333333 164.28 -98.125 160.3125 C-94.82540236 156.72176139 -93.05833121 152.38786146 -91 148 C-89.54818154 144.92214487 -88.30144864 142.36173836 -86.125 139.75 C-84.20178706 137.26113619 -82.98013166 135.06450422 -81.625 132.25 C-79.56060211 127.97555651 -77.18091877 124.14496245 -74.484375 120.24609375 C-72.46582072 117.19170241 -70.76824335 113.99502724 -69.078125 110.75 C-68 109 -68 109 -66 108 C-65.30959426 106.34302621 -64.6469365 104.6744239 -64 103 C-62.5 100.1875 -62.5 100.1875 -61 98 C-60.34 98 -59.68 98 -59 98 C-58.67 96.35 -58.34 94.7 -58 93 C-57.34 93 -56.68 93 -56 93 C-55.731875 91.948125 -55.46375 90.89625 -55.1875 89.8125 C-54.12747781 86.40927088 -53.08611696 83.86841082 -51 81 C-50.34 81 -49.68 81 -49 81 C-48.79375 80.030625 -48.5875 79.06125 -48.375 78.0625 C-46.94101838 73.0586061 -43.9464336 69.2245669 -41 65 C-37.19916838 59.20666194 -33.5831974 53.35943697 -30.2578125 47.28125 C-28.8060684 44.64827312 -27.32386589 42.03675729 -25.8125 39.4375 C-25.07966797 38.16712891 -25.07966797 38.16712891 -24.33203125 36.87109375 C-23.89246094 36.25363281 -23.45289063 35.63617187 -23 35 C-22.34 35 -21.68 35 -21 35 C-20.79375 34.030625 -20.5875 33.06125 -20.375 32.0625 C-18.46696973 25.3435077 -13.6290467 19.12501599 -9 14 C-8.34 14 -7.68 14 -7 14 C-6.87044922 13.11248047 -6.87044922 13.11248047 -6.73828125 12.20703125 C-5.72391007 6.50235666 -4.50562764 3.6756436 0 0 Z " fill="#FDFDFD" transform="translate(597,484)"/>
<path d="M0 0 C15.18 0 30.36 0 46 0 C46 20.79 46 41.58 46 63 C64.15 63 82.3 63 101 63 C101 75.87 101 88.74 101 102 C82.85 102 64.7 102 46 102 C46.0965708 124.5673952 46.0965708 124.5673952 46.22207737 147.13457775 C46.27193137 155.20566828 46.31739434 163.27670526 46.34643555 171.34790039 C46.36944374 177.7384784 46.40287308 184.12890341 46.44870156 190.51936001 C46.472596 193.90159193 46.49134941 197.28367267 46.49761391 200.66598701 C46.50723773 204.44625484 46.53527838 208.2259713 46.56762695 212.00610352 C46.56619186 213.12172668 46.56475677 214.23734985 46.5632782 215.38677979 C46.63544201 221.35037964 47.03562923 225.77033516 50 231 C52.57183314 233.27537692 52.57183314 233.27537692 55 235 C55 235.66 55 236.32 55 237 C56.093125 237.309375 57.18625 237.61875 58.3125 237.9375 C60.55407994 238.58337897 62.7869351 239.2623117 65 240 C67.73135251 240.08506322 70.43712315 240.11599182 73.16796875 240.09765625 C74.22497986 240.09614563 74.22497986 240.09614563 75.30334473 240.09460449 C77.93141308 240.08937914 80.5594582 240.07541786 83.1875 240.0625 C92.0046875 240.0315625 92.0046875 240.0315625 101 240 C101 252.21 101 264.42 101 277 C90.36398093 278.99425358 81.42825651 280.46816232 70.83520508 280.33618164 C68.80184628 280.31237527 66.76979359 280.31568641 64.73632812 280.32226562 C52.63296961 280.29917702 41.34669109 279.00150818 30 274.6875 C29.19433594 274.40455078 28.38867188 274.12160156 27.55859375 273.83007812 C22.63003094 271.9991211 19.51273503 270.05265542 16 266 C15.0925 265.13375 14.185 264.2675 13.25 263.375 C11 261 11 261 10 258 C9.34 258 8.68 258 8 258 C7.73445313 257.36191406 7.46890625 256.72382812 7.1953125 256.06640625 C6.84210938 255.24011719 6.48890625 254.41382813 6.125 253.5625 C5.77695313 252.73878906 5.42890625 251.91507813 5.0703125 251.06640625 C4.1755063 248.84253285 4.1755063 248.84253285 2 248 C1.40234375 245.8828125 1.40234375 245.8828125 0.9375 243.125 C0.78152344 242.24070312 0.62554688 241.35640625 0.46484375 240.4453125 C-0.75056887 231.43696017 -1.14293446 222.54476683 -1.11352539 213.46020508 C-1.11367142 212.25890961 -1.11381744 211.05761414 -1.1139679 209.81991577 C-1.11339529 206.56238893 -1.10841961 203.30490643 -1.10139394 200.04738832 C-1.09509413 196.62946917 -1.0945514 193.21154893 -1.09336853 189.79362488 C-1.0902746 183.33765214 -1.08208762 176.88169658 -1.07201904 170.42573136 C-1.06079735 163.06890763 -1.05533227 155.71208303 -1.05032361 148.35525286 C-1.03990315 133.23682414 -1.02158209 118.11841768 -1 103 C-12.55 103 -24.1 103 -36 103 C-36 89.8 -36 76.6 -36 63 C-24.12 63 -12.24 63 0 63 C0 42.21 0 21.42 0 0 Z " fill="#020202" transform="translate(1414,459)"/>
<path d="M0 0 C1.28455078 -0.00128906 2.56910156 -0.00257813 3.89257812 -0.00390625 C4.55281982 -0.00181152 5.21306152 0.0002832 5.89331055 0.00244141 C7.92959889 0.00784335 9.96567115 0.00245331 12.00195312 -0.00390625 C13.91911133 -0.00197266 13.91911133 -0.00197266 15.875 0 C17.04651611 0.00112793 18.21803223 0.00225586 19.42504883 0.00341797 C22.10546875 0.1328125 22.10546875 0.1328125 23.10546875 1.1328125 C23.19418148 4.16259054 23.22066225 7.16948272 23.203125 10.19921875 C23.20171005 11.10784164 23.2002951 12.01646454 23.19883728 12.95262146 C23.19322068 15.86688471 23.1806654 18.78107231 23.16796875 21.6953125 C23.16295589 23.66601452 23.15839261 25.63671774 23.15429688 27.60742188 C23.14324586 32.44924809 23.12597013 37.29101745 23.10546875 42.1328125 C22.4005127 42.12757568 21.69555664 42.12233887 20.96923828 42.11694336 C17.72299112 42.09593979 14.47675835 42.08307881 11.23046875 42.0703125 C10.121875 42.06193359 9.01328125 42.05355469 7.87109375 42.04492188 C1.21495386 42.02534499 -5.28844295 42.30401472 -11.89453125 43.1328125 C-11.89453125 43.7928125 -11.89453125 44.4528125 -11.89453125 45.1328125 C-12.48621094 45.31457031 -13.07789063 45.49632812 -13.6875 45.68359375 C-20.88166649 47.97211327 -25.68079607 50.53758451 -30.89453125 56.1328125 C-31.4153125 56.68324219 -31.93609375 57.23367188 -32.47265625 57.80078125 C-35.73648688 61.38941055 -37.7186337 64.31163255 -38.89453125 69.1328125 C-39.55453125 69.1328125 -40.21453125 69.1328125 -40.89453125 69.1328125 C-41.55453125 71.7728125 -42.21453125 74.4128125 -42.89453125 77.1328125 C-43.55453125 77.1328125 -44.21453125 77.1328125 -44.89453125 77.1328125 C-45.20772269 78.52849085 -45.52004913 79.92436332 -45.83203125 81.3203125 C-46.00605469 82.09761719 -46.18007812 82.87492188 -46.359375 83.67578125 C-46.53597656 84.48660156 -46.71257812 85.29742188 -46.89453125 86.1328125 C-47.06730559 86.89742892 -47.24007994 87.66204535 -47.41808987 88.44983196 C-47.9054639 91.19437742 -48.03330681 93.73165351 -48.05274963 96.51753235 C-48.06743286 98.11811745 -48.06743286 98.11811745 -48.08241272 99.7510376 C-48.08816818 100.91125427 -48.09392365 102.07147095 -48.09985352 103.2668457 C-48.10975311 104.49652573 -48.11965271 105.72620575 -48.12985229 106.9931488 C-48.15599096 110.35637658 -48.17787316 113.71958125 -48.19785428 117.08284783 C-48.2197645 120.60092705 -48.24712849 124.11896377 -48.27391052 127.63700867 C-48.32376945 134.29502072 -48.36873342 140.95305645 -48.41193289 147.61111468 C-48.46136348 155.19273472 -48.51625997 162.77431211 -48.57161248 170.35589087 C-48.68532811 185.94816014 -48.79146821 201.54046863 -48.89453125 217.1328125 C-64.73453125 217.1328125 -80.57453125 217.1328125 -96.89453125 217.1328125 C-96.89453125 146.8428125 -96.89453125 76.5528125 -96.89453125 4.1328125 C-81.05453125 4.1328125 -65.21453125 4.1328125 -48.89453125 4.1328125 C-48.39953125 16.0128125 -48.39953125 16.0128125 -47.89453125 28.1328125 C-47.23453125 28.1328125 -46.57453125 28.1328125 -45.89453125 28.1328125 C-45.89453125 27.4728125 -45.89453125 26.8128125 -45.89453125 26.1328125 C-45.23453125 26.1328125 -44.57453125 26.1328125 -43.89453125 26.1328125 C-43.6521875 25.57464844 -43.40984375 25.01648438 -43.16015625 24.44140625 C-37.62527365 14.34537039 -28.3346957 7.32440269 -17.89453125 3.1328125 C-16.56421875 2.545 -16.56421875 2.545 -15.20703125 1.9453125 C-10.22049815 0.19328736 -5.24558799 0.00502623 0 0 Z " fill="#010101" transform="translate(1335.89453125,519.8671875)"/>
<path d="M0 0 C0 13.86 0 27.72 0 42 C-3.7125 41.95875 -7.425 41.9175 -11.25 41.875 C-27.9111487 41.68965895 -27.9111487 41.68965895 -43.0625 47.87890625 C-45 49 -45 49 -47.1875 49.46484375 C-47.785625 49.64144531 -48.38375 49.81804688 -49 50 C-49.33 50.99 -49.66 51.98 -50 53 C-51.65788785 54.34423339 -53.32576317 55.67618483 -55 57 C-56.94966053 59.27460395 -58.66084521 61.32169041 -60 64 C-60.66 64 -61.32 64 -62 64 C-63.92205381 68.58335908 -65.45730076 73.27934033 -67 78 C-67.66 78 -68.32 78 -69 78 C-69.144375 78.5775 -69.28875 79.155 -69.4375 79.75 C-69.77669159 81.10676635 -70.13391905 82.45945377 -70.5252676 83.80210495 C-71.08392118 86.38853454 -71.14033328 88.76932602 -71.15821838 91.4163208 C-71.1680072 92.51565948 -71.17779602 93.61499817 -71.18788147 94.74765015 C-71.19363693 95.94886505 -71.1993924 97.15007996 -71.20532227 98.38769531 C-71.21522186 99.65624359 -71.22512146 100.92479187 -71.23532104 102.23178101 C-71.26232859 105.70661987 -71.28336057 109.18147225 -71.30332303 112.65635777 C-71.32520822 116.28922037 -71.35258451 119.92204149 -71.37937927 123.55487061 C-71.42927192 130.43249553 -71.47422345 137.31014352 -71.51740164 144.18781352 C-71.56680332 152.01849807 -71.62171057 159.84914099 -71.67708123 167.67978525 C-71.79084866 183.78648649 -71.8969723 199.89322594 -72 216 C-87.84 216 -103.68 216 -120 216 C-120.02802001 201.27081644 -120.05130633 186.5416971 -120.0625 171.8125 C-120.06335602 170.6943264 -120.06421204 169.5761528 -120.06509399 168.42409515 C-120.09098671 129.9886873 -119.8781013 91.55848617 -119.5 53.125 C-119.48804218 51.90891178 -119.47608437 50.69282356 -119.46376419 49.43988419 C-119.31736425 34.62649362 -119.15995804 19.813257 -119 5 C-103.82 5 -88.64 5 -73 5 C-73 15.89 -73 26.78 -73 38 C-72.34 38 -71.68 38 -71 38 C-70.90525391 37.09121094 -70.90525391 37.09121094 -70.80859375 36.1640625 C-69.74314263 28.87413379 -66.94897069 23.48588732 -62 18 C-61.34 18 -60.68 18 -60 18 C-59.34 16.68 -58.68 15.36 -58 14 C-57.34 14 -56.68 14 -56 14 C-55.67 13.01 -55.34 12.02 -55 11 C-51.8766353 8.53036279 -49.713285 7.10973615 -45.75 6.5 C-44.38875 6.2525 -44.38875 6.2525 -43 6 C-42.58814453 5.03320312 -42.58814453 5.03320312 -42.16796875 4.046875 C-41 2 -41 2 -38.69140625 1.171875 C-25.82511783 -0.56290546 -12.96437824 -0.12836018 0 0 Z " fill="#020202" transform="translate(2135,520)"/>
<path d="M0 0 C0.66 0 1.32 0 2 0 C2.24234375 1.18335938 2.4846875 2.36671875 2.734375 3.5859375 C4.33137263 11.1893849 5.8894288 18.52971982 9.00390625 25.6796875 C12.61469568 34.09070288 14.90970166 43.02758079 17.24975586 51.85742188 C18.37642851 56.11279795 18.37642851 56.11279795 20.109375 60.140625 C21.38699493 62.80793678 21.43357487 65.31481469 21.625 68.25 C21.69976563 69.32765625 21.77453125 70.4053125 21.8515625 71.515625 C21.92503906 72.74539063 21.92503906 72.74539063 22 74 C22.66 74 23.32 74 24 74 C24.33 75.98 24.66 77.96 25 80 C25.66 80 26.32 80 27 80 C27.20496094 80.97582031 27.40992188 81.95164062 27.62109375 82.95703125 C27.89050781 84.22933594 28.15992188 85.50164062 28.4375 86.8125 C28.70433594 88.07707031 28.97117187 89.34164062 29.24609375 90.64453125 C29.93427886 93.97045413 29.93427886 93.97045413 31 97 C31.66 97 32.32 97 33 97 C33.25394531 98.18335938 33.50789063 99.36671875 33.76953125 100.5859375 C35.74308221 109.6870029 37.79808851 118.64677833 40.8515625 127.45703125 C41.26535156 128.65392578 41.26535156 128.65392578 41.6875 129.875 C41.93886719 130.57367187 42.19023438 131.27234375 42.44921875 131.9921875 C43 134 43 134 43 138 C14.62 138 -13.76 138 -43 138 C-40.75 127.875 -40.75 127.875 -39.375 122.9375 C-39.11460938 121.99777344 -38.85421875 121.05804687 -38.5859375 120.08984375 C-38.29589844 119.05537109 -38.29589844 119.05537109 -38 118 C-37.34 118 -36.68 118 -36 118 C-35.773125 116.845 -35.54625 115.69 -35.3125 114.5 C-34.2804788 109.83734306 -32.92402847 105.30439554 -31.5 100.75 C-31.28641846 100.06486328 -31.07283691 99.37972656 -30.8527832 98.67382812 C-29.95390575 95.83563207 -29.01716177 93.04250745 -27.90234375 90.28125 C-27.03612009 88.09131658 -26.51107332 86.05694851 -26.0625 83.75 C-25.07110033 79.03093758 -23.61007281 74.54040533 -22 70 C-21.34 70 -20.68 70 -20 70 C-19.87625 68.700625 -19.7525 67.40125 -19.625 66.0625 C-17.37126405 46.02929152 -17.37126405 46.02929152 -12.5390625 40.25390625 C-10.2281395 36.86963577 -9.65826163 33.21882693 -8.8125 29.25 C-8.63525391 28.45722656 -8.45800781 27.66445313 -8.27539062 26.84765625 C-7.84136346 24.90039924 -7.41947321 22.95044396 -7 21 C-6.34 21 -5.68 21 -5 21 C-4.95101563 20.38253906 -4.90203125 19.76507813 -4.8515625 19.12890625 C-4.33391578 13.26521841 -3.38417877 7.72127225 -2 2 C-1.34 2 -0.68 2 0 2 C0 1.34 0 0.68 0 0 Z " fill="#FAFAFA" transform="translate(1077,486)"/>
<path d="M0 0 C16.5 0 33 0 50 0 C50 45.87 50 91.74 50 139 C48.02749969 135.05499938 47.75158447 133.65389272 47.75949097 129.43182373 C47.75674164 128.29882843 47.75399231 127.16583313 47.75115967 125.99850464 C47.75835022 124.75988678 47.76554077 123.52126892 47.77294922 122.24511719 C47.77265717 120.93755463 47.77236511 119.62999207 47.77206421 118.2828064 C47.77149042 114.70045786 47.78324893 111.11824327 47.79721212 107.53592587 C47.80971511 103.79098629 47.81088964 100.04604365 47.81326294 96.30108643 C47.81947898 89.21091337 47.83589147 82.120802 47.85596192 75.0306561 C47.87831707 66.95817422 47.88931338 58.88568939 47.89935279 50.81318426 C47.9202576 34.20874771 47.95693537 17.60439611 48 1 C32.49 1 16.98 1 1 1 C1.33 54.13 1.66 107.26 2 162 C2.66 162 3.32 162 4 162 C4.33 164.97 4.66 167.94 5 171 C3 170 3 170 2.16041088 167.83514023 C-0.10276917 159.22816235 -0.4086644 150.966069 -0.34057617 142.13378906 C-0.33972802 140.57538876 -0.3402087 139.01698726 -0.34190369 137.45858765 C-0.34275774 133.26510964 -0.3252287 129.07189372 -0.30418181 124.87847614 C-0.28531556 120.48229139 -0.28365679 116.08609937 -0.28010559 111.68988037 C-0.27081416 103.38163669 -0.24624004 95.07351269 -0.21605712 86.76532149 C-0.1824223 77.29970214 -0.16600436 67.83407681 -0.15097082 58.36841249 C-0.11968759 38.91219355 -0.0647122 19.45613846 0 0 Z " fill="#6C6C6C" transform="translate(1778,524)"/>
<path d="M0 0 C15.84 0 31.68 0 48 0 C48.495 11.88 48.495 11.88 49 24 C49.66 24 50.32 24 51 24 C51 23.34 51 22.68 51 22 C51.66 22 52.32 22 53 22 C53.495 20.515 53.495 20.515 54 19 C54.495 19.99 54.495 19.99 55 21 C54.566875 21.680625 54.13375 22.36125 53.6875 23.0625 C51.48732197 26.89243954 50.79793009 30.6911775 50 35 C48.02 35.495 48.02 35.495 46 36 C46 24.78 46 13.56 46 2 C31.15 2 16.3 2 1 2 C1 71.3 1 140.6 1 212 C16.51 212 32.02 212 48 212 C48 212.33 48 212.66 48 213 C32.16 213 16.32 213 0 213 C0 142.71 0 72.42 0 0 Z " fill="#626262" transform="translate(1239,524)"/>
<path d="M0 0 C16.17 0 32.34 0 49 0 C49 9.57 49 19.14 49 29 C49.66 29 50.32 29 51 29 C50.67 30.65 50.34 32.3 50 34 C49.34 34 48.68 34 48 34 C48 23.11 48 12.22 48 1 C32.82 1 17.64 1 2 1 C2.01160156 7.68507813 2.02320313 14.37015625 2.03515625 21.2578125 C2.04742274 30.54687309 2.05596132 39.83593369 2.0625 49.125 C2.06335602 50.33230648 2.06421204 51.53961296 2.06509399 52.78350449 C2.08904862 91.12915436 1.90728491 129.46901077 1.5 167.8125 C1.48804218 168.93889137 1.47608437 170.06528275 1.46376419 171.22580719 C1.31863024 184.81731724 1.16438493 198.40870943 1 212 C0.67 212 0.34 212 0 212 C0 142.04 0 72.08 0 0 Z " fill="#B2B2B2" transform="translate(2014,524)"/>
<path d="M0 0 C3.08236365 2.78407039 3.95206337 3.80825346 5 8 C-73.21 8 -151.42 8 -232 8 C-231.67 6.68 -231.34 5.36 -231 4 C-230.67 4.99 -230.34 5.98 -230 7 C-154.43 6.67 -78.86 6.34 -1 6 C-0.67 4.02 -0.34 2.04 0 0 Z " fill="#DCDCDC" transform="translate(711,670)"/>
<path d="M0 0 C18.15 0 36.3 0 55 0 C55 0.33 55 0.66 55 1 C37.18 1 19.36 1 1 1 C1 40.27 1 79.54 1 120 C1.99 120.33 2.98 120.66 4 121 C3.49396008 123.16874252 3.00016187 124.99967627 2 127 C0.38464265 123.43634758 -0.24855107 120.67154541 -0.24050903 116.76713562 C-0.24325836 115.7337355 -0.24600769 114.70033539 -0.24884033 113.63562012 C-0.24164978 112.5128064 -0.23445923 111.38999268 -0.22705078 110.2331543 C-0.22734283 109.04248856 -0.22763489 107.85182281 -0.22793579 106.62507629 C-0.22678298 103.36920876 -0.21676739 100.11351418 -0.20278788 96.85768104 C-0.19026703 93.45174397 -0.18910895 90.04580333 -0.18673706 86.6398468 C-0.18052626 80.19427462 -0.16412089 73.74877046 -0.14403808 67.3032282 C-0.11947114 59.24318083 -0.10853825 51.18312236 -0.09765625 43.12304688 C-0.07818908 28.74864496 -0.03812274 14.37439142 0 0 Z " fill="#B5B5B5" transform="translate(1460,561)"/>
<path d="M0 0 C0.33 0 0.66 0 1 0 C1.33 53.46 1.66 106.92 2 162 C2.66 162 3.32 162 4 162 C4.33 164.97 4.66 167.94 5 171 C3 170 3 170 2.16041088 167.83514023 C-0.10276917 159.22816235 -0.4086644 150.966069 -0.34057617 142.13378906 C-0.33972802 140.57538876 -0.3402087 139.01698726 -0.34190369 137.45858765 C-0.34275774 133.26510964 -0.3252287 129.07189372 -0.30418181 124.87847614 C-0.28531556 120.48229139 -0.28365679 116.08609937 -0.28010559 111.68988037 C-0.27081416 103.38163669 -0.24624004 95.07351269 -0.21605712 86.76532149 C-0.1824223 77.29970214 -0.16600436 67.83407681 -0.15097082 58.36841249 C-0.11968761 38.91220737 -0.06698411 19.45611334 0 0 Z " fill="#9D9D9D" transform="translate(1778,524)"/>
<path d="M0 0 C1.28455078 -0.00128906 2.56910156 -0.00257813 3.89257812 -0.00390625 C4.55281982 -0.00181152 5.21306152 0.0002832 5.89331055 0.00244141 C7.92959889 0.00784335 9.96567115 0.00245331 12.00195312 -0.00390625 C13.91911133 -0.00197266 13.91911133 -0.00197266 15.875 0 C17.04651611 0.00112793 18.21803223 0.00225586 19.42504883 0.00341797 C22.10546875 0.1328125 22.10546875 0.1328125 23.10546875 1.1328125 C23.19418148 4.16259054 23.22066225 7.16948272 23.203125 10.19921875 C23.20171005 11.10784164 23.2002951 12.01646454 23.19883728 12.95262146 C23.19322068 15.86688471 23.1806654 18.78107231 23.16796875 21.6953125 C23.16295589 23.66601452 23.15839261 25.63671774 23.15429688 27.60742188 C23.14409492 32.44927164 23.12452284 37.29095697 23.10546875 42.1328125 C13.20546875 42.1328125 3.30546875 42.1328125 -6.89453125 42.1328125 C-3.44819243 39.83525328 -2.18384734 39.89637274 1.8671875 39.9375 C3.37865356 39.94499268 3.37865356 39.94499268 4.9206543 39.95263672 C6.19851807 39.97084473 7.47638184 39.98905273 8.79296875 40.0078125 C14.88765625 40.0696875 14.88765625 40.0696875 21.10546875 40.1328125 C21.10546875 27.5928125 21.10546875 15.0528125 21.10546875 2.1328125 C14.94890625 2.101875 14.94890625 2.101875 8.66796875 2.0703125 C6.75479858 2.05665649 6.75479858 2.05665649 4.80297852 2.04272461 C-1.51962616 2.0274419 -7.62820059 2.28166384 -13.89453125 3.1328125 C-13.56453125 2.4728125 -13.23453125 1.8128125 -12.89453125 1.1328125 C-8.58899323 0.12383309 -4.40818295 0.00422384 0 0 Z " fill="#484848" transform="translate(1335.89453125,519.8671875)"/>
<path d="M0 0 C1.84276509 1.84276509 1.12874411 4.42963759 1.13894653 6.88134766 C1.1369223 7.70425293 1.13489807 8.5271582 1.1328125 9.375 C1.13424759 10.63449463 1.13424759 10.63449463 1.13571167 11.91943359 C1.13639348 13.69824295 1.13453917 15.47705477 1.13037109 17.25585938 C1.12502283 19.98833776 1.13031605 22.72065176 1.13671875 25.453125 C1.13605797 27.1770837 1.13477681 28.90104229 1.1328125 30.625 C1.13483673 31.44790527 1.13686096 32.27081055 1.13894653 33.11865234 C1.11495054 38.88504946 1.11495054 38.88504946 0 40 C-1.66617115 40.04063832 -3.33388095 40.042721 -5 40 C-3.02 39.505 -3.02 39.505 -1 39 C-1 26.79 -1 14.58 -1 2 C-11.395 2.495 -11.395 2.495 -22 3 C-21.67 2.34 -21.34 1.68 -21 1 C-18.57377972 0.68288613 -16.24956039 0.48588047 -13.8125 0.375 C-12.49894531 0.30023437 -11.18539063 0.22546875 -9.83203125 0.1484375 C-3.22263212 -0.10758408 -3.22263212 -0.10758408 0 0 Z " fill="#C3C3C3" transform="translate(1516,697)"/>
<path d="M0 0 C15.84 0 31.68 0 48 0 C48.495 11.88 48.495 11.88 49 24 C49.66 24 50.32 24 51 24 C51 23.34 51 22.68 51 22 C51.66 22 52.32 22 53 22 C53.495 20.515 53.495 20.515 54 19 C54.495 19.99 54.495 19.99 55 21 C53.71827583 23.38665879 52.39712623 25.68520414 51 28 C50.3197633 29.32646156 49.64507739 30.65608877 49 32 C48.34 32 47.68 32 47 32 C47 21.77 47 11.54 47 1 C31.49 1 15.98 1 0 1 C0 0.67 0 0.34 0 0 Z " fill="#919191" transform="translate(1239,524)"/>
<path d="M0 0 C0.66 0 1.32 0 2 0 C2 11.55 2 23.1 2 35 C-6.58 35 -15.16 35 -24 35 C-23.67 34.34 -23.34 33.68 -23 33 C-15.41 33 -7.82 33 0 33 C0 22.11 0 11.22 0 0 Z " fill="#434343" transform="translate(2133,527)"/>
<path d="M0 0 C2.76276177 0.52268466 5.3260876 1.10869587 8 2 C10.73135251 2.08506322 13.43712315 2.11599182 16.16796875 2.09765625 C17.22497986 2.09614563 17.22497986 2.09614563 18.30334473 2.09460449 C20.93141308 2.08937914 23.5594582 2.07541786 26.1875 2.0625 C35.0046875 2.0315625 35.0046875 2.0315625 44 2 C44 14.21 44 26.42 44 39 C43.67 39 43.34 39 43 39 C43 27.12 43 15.24 43 3 C41.02 3.33 39.04 3.66 37 4 C34.59241875 4.08994911 32.18269745 4.13062425 29.7734375 4.1328125 C29.10333649 4.13376923 28.43323547 4.13472595 27.74282837 4.13571167 C26.33603826 4.13638812 24.92924494 4.13457141 23.52246094 4.13037109 C21.37427772 4.12499819 19.22630195 4.13034288 17.078125 4.13671875 C15.70572871 4.1360582 14.33333254 4.13477753 12.9609375 4.1328125 C11.10154541 4.13112061 11.10154541 4.13112061 9.20458984 4.12939453 C6.59116361 4.02386993 4.47711377 3.77830064 2 3 C2 2.34 2 1.68 2 1 C1.34 0.67 0.68 0.34 0 0 Z " fill="#323232" transform="translate(1471,697)"/>
<path d="M0 0 C15.18 0 30.36 0 46 0 C46 10.23 46 20.46 46 31 C46.66 31 47.32 31 48 31 C48.33 29.68 48.66 28.36 49 27 C50.33332095 29.6666419 49.67102033 31.16680303 49 34 C47.02 34.495 47.02 34.495 45 35 C45 23.78 45 12.56 45 1 C30.15 1 15.3 1 0 1 C0 0.67 0 0.34 0 0 Z " fill="#383838" transform="translate(1240,525)"/>
<path d="M0 0 C15.51 0 31.02 0 47 0 C47 9.57 47 19.14 47 29 C47.66 29 48.32 29 49 29 C48.67 30.65 48.34 32.3 48 34 C47.34 34 46.68 34 46 34 C46 23.11 46 12.22 46 1 C30.82 1 15.64 1 0 1 C0 0.67 0 0.34 0 0 Z " fill="#868686" transform="translate(2016,524)"/>
<path d="M0 0 C0.33 0.66 0.66 1.32 1 2 C-0.77869423 6.21269686 -3.07633663 9.51046631 -6 13 C-6.99 14.485 -6.99 14.485 -8 16 C-8.99 16 -9.98 16 -11 16 C-11.12375 16.87785156 -11.12375 16.87785156 -11.25 17.7734375 C-12.22273886 20.66125599 -13.6493825 21.71932081 -16 23.625 C-18.95572315 25.94555299 -18.95572315 25.94555299 -21 29 C-21.66 28.67 -22.32 28.34 -23 28 C-22.31164062 27.22076172 -22.31164062 27.22076172 -21.609375 26.42578125 C-20.99578125 25.72839844 -20.3821875 25.03101563 -19.75 24.3125 C-19.14671875 23.62800781 -18.5434375 22.94351563 -17.921875 22.23828125 C-15.88799731 19.86955785 -13.94352794 17.44329227 -12 15 C-9.71126063 12.20353335 -7.41656003 9.41204011 -5.12109375 6.62109375 C-3.36175676 4.44703276 -1.65816917 2.25150766 0 0 Z " fill="#DADADA" transform="translate(818,700)"/>
<path d="M0 0 C0.33 0 0.66 0 1 0 C1.33 9.24 1.66 18.48 2 28 C1.34 28 0.68 28 0 28 C-0.33 20.74 -0.66 13.48 -1 6 C-2.65 7.32 -4.3 8.64 -6 10 C-6.66 9.67 -7.32 9.34 -8 9 C-6.69088122 7.49704815 -5.37761608 5.99770689 -4.0625 4.5 C-3.33160156 3.6646875 -2.60070313 2.829375 -1.84765625 1.96875 C-1.23792969 1.3190625 -0.62820313 0.669375 0 0 Z " fill="#CBCBCB" transform="translate(1921,709)"/>
<path d="M0 0 C2.76276177 0.52268466 5.3260876 1.10869587 8 2 C10.13794525 2.0833804 12.27842009 2.10733747 14.41796875 2.09765625 C15.67158203 2.09443359 16.92519531 2.09121094 18.21679688 2.08789062 C19.52712891 2.07951172 20.83746094 2.07113281 22.1875 2.0625 C23.52278481 2.05748317 24.85807141 2.05292059 26.19335938 2.04882812 C29.46228473 2.03702695 32.73111991 2.02056297 36 2 C32.60806574 4.05234392 29.99455083 4.24596122 26.0625 4.23046875 C24.92039062 4.22853516 23.77828125 4.22660156 22.6015625 4.22460938 C21.41304687 4.21236328 20.22453125 4.20011719 19 4.1875 C17.81148437 4.18685547 16.62296875 4.18621094 15.3984375 4.18554688 C5.78260131 4.13670798 5.78260131 4.13670798 2 3 C2 2.34 2 1.68 2 1 C1.34 0.67 0.68 0.34 0 0 Z " fill="#626262" transform="translate(1471,697)"/>
<path d="M0 0 C0.33 0 0.66 0 1 0 C0.32176656 7.18927445 0.32176656 7.18927445 -3 10 C-3.495 10.845625 -3.99 11.69125 -4.5 12.5625 C-6 15 -6 15 -9 17 C-7.69047721 12.56473186 -5.95266332 9.00013681 -3.4375 5.125 C-2.50744141 3.67480469 -2.50744141 3.67480469 -1.55859375 2.1953125 C-1.04425781 1.47085938 -0.52992188 0.74640625 0 0 Z " fill="#D4D4D4" transform="translate(558,546)"/>
<path d="M0 0 C0.33 0 0.66 0 1 0 C1 9.57 1 19.14 1 29 C1.66 29 2.32 29 3 29 C2.505 31.475 2.505 31.475 2 34 C1.34 34 0.68 34 0 34 C0 22.78 0 11.56 0 0 Z " fill="#9F9F9F" transform="translate(2062,524)"/>
<path d="M0 0 C2.5499869 1.27499345 2.65976415 2.18491352 3.625 4.8125 C4.01558594 5.84310547 4.01558594 5.84310547 4.4140625 6.89453125 C5 9 5 9 5 13 C5.66 13 6.32 13 7 13 C7.33 16.3 7.66 19.6 8 23 C6.26453924 20.39680887 5.34824767 18.47732763 4.375 15.5625 C4.11460938 14.80066406 3.85421875 14.03882813 3.5859375 13.25390625 C3 11 3 11 3 7 C2.34 7 1.68 7 1 7 C0.67 4.69 0.34 2.38 0 0 Z " fill="#848484" transform="translate(1148,708)"/>
<path d="M0 0 C1 3 1 3 0 5.3125 C-2.20397097 8.27408599 -4.60670894 10.37329681 -7.4765625 12.66796875 C-9.12972374 13.94364001 -9.12972374 13.94364001 -10 16 C-10.66 15.67 -11.32 15.34 -12 15 C-11.54109375 14.48050781 -11.0821875 13.96101562 -10.609375 13.42578125 C-4.71180646 7.13044398 -4.71180646 7.13044398 0 0 Z " fill="#D0D0D0" transform="translate(807,713)"/>
<path d="M0 0 C0.99 0.495 0.99 0.495 2 1 C2 1.99 2 2.98 2 4 C2.66 4 3.32 4 4 4 C4.4813341 5.72856459 4.95996971 7.45788071 5.4375 9.1875 C5.70433594 10.15042969 5.97117187 11.11335937 6.24609375 12.10546875 C6.92880018 14.72663697 7.49892195 17.338935 8 20 C5 18 5 18 4.26953125 15.3984375 C4.04330078 13.90183594 4.04330078 13.90183594 3.8125 12.375 C3.65394531 11.37210938 3.49539063 10.36921875 3.33203125 9.3359375 C3.16767578 8.17964844 3.16767578 8.17964844 3 7 C2.34 7 1.68 7 1 7 C0.67 4.69 0.34 2.38 0 0 Z " fill="#676767" transform="translate(1176,637)"/>
<path d="M0 0 C0.66 0.33 1.32 0.66 2 1 C-0.625 7.75 -0.625 7.75 -4 10 C-5.07136051 12.30144109 -6.07989717 14.6340213 -7 17 C-7.66 16.67 -8.32 16.34 -9 16 C-8.67 14.35 -8.34 12.7 -8 11 C-7.34 11 -6.68 11 -6 11 C-5.34 9.68 -4.68 8.36 -4 7 C-3.34 7 -2.68 7 -2 7 C-1.34 4.69 -0.68 2.38 0 0 Z " fill="#B4B4B4" transform="translate(480,485)"/>
<path d="M0 0 C0.33 0.99 0.66 1.98 1 3 C-0.23399063 4.36877116 -1.48780623 5.71969166 -2.75 7.0625 C-3.79414062 8.19365234 -3.79414062 8.19365234 -4.859375 9.34765625 C-7 11 -7 11 -9.265625 10.74609375 C-9.83796875 10.49988281 -10.4103125 10.25367188 -11 10 C-9.93458984 9.04287109 -9.93458984 9.04287109 -8.84765625 8.06640625 C-7.46900391 6.82697266 -7.46900391 6.82697266 -6.0625 5.5625 C-4.68771484 4.32693359 -4.68771484 4.32693359 -3.28515625 3.06640625 C-1.61665644 1.56046061 -1.61665644 1.56046061 0 0 Z " fill="#DDDDDD" transform="translate(790,733)"/>
<path d="M0 0 C0.33 0 0.66 0 1 0 C1.33 4.29 1.66 8.58 2 13 C2.66 13 3.32 13 4 13 C4.33 15.97 4.66 18.94 5 22 C3 21 3 21 2.1484375 18.59375 C0.55071616 12.20286466 -0.32924394 6.58487887 0 0 Z " fill="#AEAEAE" transform="translate(1778,673)"/>
<path d="M0 0 C0.33 0.66 0.66 1.32 1 2 C1.66 2 2.32 2 3 2 C6 6.38461538 6 6.38461538 6 9 C6.66 9 7.32 9 8 9 C8.66 11.31 9.32 13.62 10 16 C9.34 15.67 8.68 15.34 8 15 C8 14.01 8 13.02 8 12 C7.01 11.67 6.02 11.34 5 11 C3.96986723 9.35178756 2.96885372 7.68496298 2 6 C1.34 5.67 0.68 5.34 0 5 C0 3.35 0 1.7 0 0 Z " fill="#C3C3C3" transform="translate(644,560)"/>
<path d="M0 0 C0.66 0.33 1.32 0.66 2 1 C-5.9375 9.15798611 -5.9375 9.15798611 -12 10 C-8.29909479 6.0747975 -4.45040344 3.05419844 0 0 Z " fill="#C8C8C8" transform="translate(764,756)"/>
<path d="M0 0 C0.66 0.99 1.32 1.98 2 3 C1.34 3 0.68 3 0 3 C-0.103125 3.99 -0.20625 4.98 -0.3125 6 C-0.90808706 10.28297163 -2.38595027 13.99996371 -4 18 C-4.66 18 -5.32 18 -6 18 C-5.34 14.7 -4.68 11.4 -4 8 C-3.34 8 -2.68 8 -2 8 C-1.7834375 6.576875 -1.7834375 6.576875 -1.5625 5.125 C-1 2 -1 2 0 0 Z " fill="#636363" transform="translate(1040,466)"/>
<path d="M0 0 C0.66 0.33 1.32 0.66 2 1 C1.45730469 1.32613281 0.91460938 1.65226563 0.35546875 1.98828125 C-0.35996094 2.42527344 -1.07539063 2.86226562 -1.8125 3.3125 C-2.87404297 3.95638672 -2.87404297 3.95638672 -3.95703125 4.61328125 C-6.02572048 5.91924662 -6.02572048 5.91924662 -7.59375 7.625 C-9.53559654 9.52369439 -11.36492524 9.64390882 -14 10 C-10.66495886 4.69425273 -5.76676861 2.10979339 0 0 Z " fill="#B1B1B1" transform="translate(2096,565)"/>
<path d="M0 0 C3.81538462 2.46153846 3.81538462 2.46153846 4.75 5.1875 C4.87375 6.0846875 4.87375 6.0846875 5 7 C4.34 7 3.68 7 3 7 C2.67 6.01 2.34 5.02 2 4 C0.02 4.66 -1.96 5.32 -4 6 C-4 6.99 -4 7.98 -4 9 C-4.66 8.67 -5.32 8.34 -6 8 C-2.25 1.125 -2.25 1.125 0 0 Z " fill="#CCCCCC" transform="translate(597,484)"/>
<path d="M0 0 C0.66 1.32 1.32 2.64 2 4 C1.23883449 5.15227823 0.46567307 6.2966386 -0.3125 7.4375 C-0.95638672 8.39462891 -0.95638672 8.39462891 -1.61328125 9.37109375 C-3 11 -3 11 -6 12 C-4.43358249 7.69235185 -2.31663844 3.93828536 0 0 Z " fill="#D0D0D0" transform="translate(529,593)"/>
<path d="M0 0 C0.33 0.66 0.66 1.32 1 2 C-0.93694542 5.80471422 -2.70921407 9.20283196 -6 12 C-6 10.02 -6 8.04 -6 6 C-5.01 5.67 -4.02 5.34 -3 5 C-3 4.34 -3 3.68 -3 3 C-2.34 3 -1.68 3 -1 3 C-0.67 2.01 -0.34 1.02 0 0 Z " fill="#C0C0C0" transform="translate(1293,543)"/>
<path d="M0 0 C0.33 0.66 0.66 1.32 1 2 C0.01 3.485 0.01 3.485 -1 5 C-1.66 5 -2.32 5 -3 5 C-3.0825 6.11375 -3.165 7.2275 -3.25 8.375 C-4 12 -4 12 -6.0625 13.4375 C-7.0215625 13.7159375 -7.0215625 13.7159375 -8 14 C-7.67 12.68 -7.34 11.36 -7 10 C-6.34 10 -5.68 10 -5 10 C-4.9175 9.0925 -4.835 8.185 -4.75 7.25 C-3.90751268 3.59922161 -2.82118382 2.36615417 0 0 Z " fill="#ABABAB" transform="translate(396,623)"/>
<path d="M0 0 C0.66 0 1.32 0 2 0 C2 1.32 2 2.64 2 4 C2.66 4 3.32 4 4 4 C4.33 7.3 4.66 10.6 5 14 C3 11 3 11 3 8 C2.34 8 1.68 8 1 8 C0.67 5.36 0.34 2.72 0 0 Z " fill="#6F6F6F" transform="translate(1098,552)"/>
<path d="M0 0 C4.875 4.625 4.875 4.625 6 8 C6.99 8.66 7.98 9.32 9 10 C8.67 10.99 8.34 11.98 8 13 C0 3.7027027 0 3.7027027 0 0 Z " fill="#C2C2C2" transform="translate(803,632)"/>
<path d="M0 0 C4.84688192 0.78175515 9.3766367 2.39844278 14 4 C9.47907032 5.45606519 6.48351204 4.27032841 2 3 C2 2.34 2 1.68 2 1 C1.34 0.67 0.68 0.34 0 0 Z " fill="#9F9F9F" transform="translate(1440,732)"/>
<path d="M0 0 C2 0 2 0 3.5 1 C5.80070868 4.06761157 6.20423508 7.26602613 7 11 C3.17330957 7.57611908 1.27721526 4.99275057 0 0 Z " fill="#CECECE" transform="translate(766,571)"/>
<path d="M0 0 C0.66 0 1.32 0 2 0 C1.67 1.98 1.34 3.96 1 6 C0.34 6 -0.32 6 -1 6 C-1.99 9.465 -1.99 9.465 -3 13 C-4.27351308 10.45297384 -3.80191925 9.5717055 -3.0625 6.875 C-2.86785156 6.15054688 -2.67320312 5.42609375 -2.47265625 4.6796875 C-2.31667969 4.12539063 -2.16070313 3.57109375 -2 3 C-1.34 3 -0.68 3 0 3 C0 2.01 0 1.02 0 0 Z " fill="#8D8D8D" transform="translate(1007,555)"/>
<path d="M0 0 C0 3.68553144 -0.8522582 5.03759752 -3 8 C-5.6875 9.8125 -5.6875 9.8125 -8 11 C-6.79618552 8.50638429 -5.54571278 6.31856917 -4 4 C-3.34 4 -2.68 4 -2 4 C-1.34 2.68 -0.68 1.36 0 0 Z " fill="#4D4D4D" transform="translate(2077,534)"/>
<path d="M0 0 C1.37095624 3.69037278 0.60010967 5.70883835 -0.9375 9.25 C-1.31777344 10.14203125 -1.69804688 11.0340625 -2.08984375 11.953125 C-2.39019531 12.62859375 -2.69054687 13.3040625 -3 14 C-3.87840996 10.90279155 -3.99435406 9.09354597 -3 6 C-2.34 6 -1.68 6 -1 6 C-0.67 4.02 -0.34 2.04 0 0 Z " fill="#6B6B6B" transform="translate(951,710)"/>
<path d="M0 0 C1.37095624 3.69037278 0.60010967 5.70883835 -0.9375 9.25 C-1.31777344 10.14203125 -1.69804688 11.0340625 -2.08984375 11.953125 C-2.39019531 12.62859375 -2.69054687 13.3040625 -3 14 C-3.87840996 10.90279155 -3.99435406 9.09354597 -3 6 C-2.34 6 -1.68 6 -1 6 C-0.67 4.02 -0.34 2.04 0 0 Z " fill="#828282" transform="translate(997,583)"/>
<path d="M0 0 C0.66 0 1.32 0 2 0 C0.87204037 4.10899581 -0.33510818 8.07561214 -2 12 C-3.12377697 8.69564916 -2.89554742 6.9493138 -1.5625 3.75 C-1.27503906 3.04359375 -0.98757813 2.3371875 -0.69140625 1.609375 C-0.46324219 1.07828125 -0.23507812 0.5471875 0 0 Z " fill="#717171" transform="translate(1049,572)"/>
<path d="M0 0 C0 3.20395416 -0.74335022 5.09399739 -2 8 C-2.66 8 -3.32 8 -4 8 C-4 8.99 -4 9.98 -4 11 C-4.66 11 -5.32 11 -6 11 C-4.54955729 6.89041233 -2.48889248 3.56741255 0 0 Z " fill="#9A9A9A" transform="translate(467,508)"/>
<path d="M0 0 C0.66 0 1.32 0 2 0 C2.33 1.98 2.66 3.96 3 6 C2.01 5.67 1.02 5.34 0 5 C-0.66 5.99 -1.32 6.98 -2 8 C-2 6.02 -2 4.04 -2 2 C-1.34 2 -0.68 2 0 2 C0 1.34 0 0.68 0 0 Z " fill="#838383" transform="translate(1077,486)"/>
<path d="M0 0 C0.66 0.33 1.32 0.66 2 1 C1.34 2.32 0.68 3.64 0 5 C-0.66 5 -1.32 5 -2 5 C-2.66 6.65 -3.32 8.3 -4 10 C-4.33 10 -4.66 10 -5 10 C-5 8.35 -5 6.7 -5 5 C-3.68 4.67 -2.36 4.34 -1 4 C-0.67 2.68 -0.34 1.36 0 0 Z " fill="#E2E2E2" transform="translate(509,437)"/>
<path d="M0 0 C1.18771723 3.42943519 0.80226223 5.37784675 -0.4375 8.75 C-0.86869141 9.94882812 -0.86869141 9.94882812 -1.30859375 11.171875 C-1.65083984 12.07679688 -1.65083984 12.07679688 -2 13 C-2.33 13 -2.66 13 -3 13 C-3 11.02 -3 9.04 -3 7 C-2.34 7 -1.68 7 -1 7 C-0.67 4.69 -0.34 2.38 0 0 Z " fill="#717171" transform="translate(1043,591)"/>
<path d="M0 0 C1.485 0.99 1.485 0.99 3 2 C2.67 3.65 2.34 5.3 2 7 C1.01 6.67 0.02 6.34 -1 6 C-0.67 4.02 -0.34 2.04 0 0 Z " fill="#E6E6E6" transform="translate(711,670)"/>
<path d="M0 0 C0.66 0.33 1.32 0.66 2 1 C-0.75 3.0625 -0.75 3.0625 -4 5 C-6.203125 4.62109375 -6.203125 4.62109375 -8 4 C-6.71349294 3.30289269 -5.42059335 2.61757124 -4.125 1.9375 C-3.40570312 1.55464844 -2.68640625 1.17179688 -1.9453125 0.77734375 C-1.30335937 0.52082031 -0.66140625 0.26429688 0 0 Z " fill="#585858" transform="translate(1626,526)"/>
<path d="M0 0 C0.33 0.66 0.66 1.32 1 2 C1.66 2 2.32 2 3 2 C5 5 5 5 4.625 7.1875 C4.41875 7.785625 4.2125 8.38375 4 9 C3.896875 8.360625 3.79375 7.72125 3.6875 7.0625 C3.460625 6.381875 3.23375 5.70125 3 5 C2.01 4.67 1.02 4.34 0 4 C0 2.68 0 1.36 0 0 Z " fill="#BFBFBF" transform="translate(645,372)"/>
<path d="M0 0 C0 0.66 0 1.32 0 2 C-0.99 2 -1.98 2 -3 2 C-3.66 3.32 -4.32 4.64 -5 6 C-5.99 5.34 -6.98 4.68 -8 4 C-2.25 0 -2.25 0 0 0 Z " fill="#D2D2D2" transform="translate(730,780)"/>
<path d="M0 0 C3.55780196 0.60990891 6.6828589 1.5783681 10 3 C6.94736336 3.98120464 5.05263664 3.98120464 2 3 C2 2.34 2 1.68 2 1 C1.34 0.67 0.68 0.34 0 0 Z " fill="#474747" transform="translate(1471,697)"/>
<path d="M0 0 C0.103125 0.639375 0.20625 1.27875 0.3125 1.9375 C0.539375 2.618125 0.76625 3.29875 1 4 C1.99 4.33 2.98 4.66 4 5 C3.49396008 7.16874252 3.00016187 8.99967627 2 11 C0.19769832 7.17010894 -0.19622241 4.21878192 0 0 Z " fill="#B9B9B9" transform="translate(1460,677)"/>
<path d="M0 0 C0.66 0 1.32 0 2 0 C1.65120368 3.25543229 0.97866739 4.01873107 -1.5625 6.25 C-2.366875 6.8275 -3.17125 7.405 -4 8 C-2.66666667 5.33333333 -1.33333333 2.66666667 0 0 Z " fill="#CBCBCB" transform="translate(536,582)"/>
<path d="M0 0 C0.33 1.32 0.66 2.64 1 4 C-0.65 5.32 -2.3 6.64 -4 8 C-3.67 6.35 -3.34 4.7 -3 3 C-2.34 3 -1.68 3 -1 3 C-0.67 2.01 -0.34 1.02 0 0 Z " fill="#A8A8A8" transform="translate(501,452)"/>
</svg>
